<svg width="162" height="32" viewBox="0 0 162 32" fill="none" xmlns="http://www.w3.org/2000/svg">
<rect width="32" height="32" rx="6" fill="#3E6BF7"/>
<path d="M11.915 25.6758V21.6031L16.1607 19.1523L20.4352 21.6248V25.6902L16.1607 23.225L11.915 25.6758Z" fill="white"/>
<path d="M6.67459 11.9141H10.7472L13.1981 16.1597L10.7256 20.4342H6.66016L9.1254 16.1597L6.67459 11.9141Z" fill="white"/>
<path d="M20.4352 6.67459V10.7472L16.1895 13.198L11.915 10.7256V6.66016L16.1895 9.12538L20.4352 6.67459Z" fill="white"/>
<path d="M25.6753 20.4342H21.61L19.1592 16.1885L21.6243 11.9141H25.697L23.2246 16.1885L25.6753 20.4342Z" fill="white"/>
<path d="M43 25.1933V7H46.2194V25.1933H43Z" fill="#061A40"/>
<path d="M55.3603 25.4817C54.0496 25.4817 52.8536 25.1853 51.7723 24.5925C50.7074 23.9996 49.8554 23.1905 49.2165 22.1651C48.5939 21.1397 48.2826 19.97 48.2826 18.6562C48.2826 17.3424 48.5939 16.1728 49.2165 15.1473C49.8554 14.1219 50.7074 13.3128 51.7723 12.72C52.8372 12.1271 54.0333 11.8307 55.3603 11.8307C56.671 11.8307 57.8588 12.1271 58.9238 12.72C59.9887 13.3128 60.8325 14.1219 61.4551 15.1473C62.094 16.1567 62.4135 17.3264 62.4135 18.6562C62.4135 19.97 62.094 21.1397 61.4551 22.1651C60.8161 23.1905 59.9641 23.9996 58.8992 24.5925C57.8343 25.1853 56.6546 25.4817 55.3603 25.4817ZM55.3603 22.5977C56.0812 22.5977 56.712 22.4295 57.2526 22.093C57.8097 21.7565 58.2439 21.2919 58.5551 20.6991C58.8828 20.0902 59.0467 19.4093 59.0467 18.6562C59.0467 17.8871 58.8828 17.2142 58.5551 16.6374C58.2439 16.0446 57.8097 15.5799 57.2526 15.2435C56.712 14.891 56.0812 14.7147 55.3603 14.7147C54.6231 14.7147 53.9759 14.891 53.4189 15.2435C52.8618 15.5799 52.4195 16.0446 52.0918 16.6374C51.7805 17.2142 51.6249 17.8871 51.6249 18.6562C51.6249 19.4093 51.7805 20.0902 52.0918 20.6991C52.4195 21.2919 52.8618 21.7565 53.4189 22.093C53.9759 22.4295 54.6231 22.5977 55.3603 22.5977Z" fill="#061A40"/>
<path d="M68.5413 25.4817C67.6074 25.4817 66.7964 25.3295 66.1083 25.0251C65.4202 24.7207 64.8877 24.2881 64.5109 23.7273C64.134 23.1505 63.9456 22.4855 63.9456 21.7325C63.9456 21.0115 64.1095 20.3706 64.4371 19.8098C64.7648 19.233 65.2727 18.7523 65.9608 18.3678C66.6489 17.9833 67.5173 17.7109 68.5658 17.5507L72.9403 16.8537V19.2571L69.1802 19.8819C68.5413 19.9941 68.0661 20.1944 67.7548 20.4828C67.4435 20.7712 67.2879 21.1477 67.2879 21.6123C67.2879 22.061 67.4599 22.4215 67.804 22.6938C68.1644 22.9502 68.6068 23.0784 69.1311 23.0784C69.8028 23.0784 70.3926 22.9422 70.9005 22.6698C71.4248 22.3814 71.8262 21.9889 72.1047 21.4922C72.3996 20.9955 72.5471 20.4507 72.5471 19.8579V16.4932C72.5471 15.9324 72.3177 15.4678 71.8589 15.0993C71.4166 14.7147 70.8268 14.5225 70.0895 14.5225C69.4014 14.5225 68.787 14.7067 68.2463 15.0752C67.7221 15.4277 67.337 15.9004 67.0913 16.4932L64.4617 15.2435C64.7239 14.5545 65.1334 13.9617 65.6905 13.465C66.2639 12.9523 66.9357 12.5517 67.7057 12.2633C68.4757 11.9749 69.3113 11.8307 70.2124 11.8307C71.3101 11.8307 72.2767 12.031 73.1123 12.4316C73.9479 12.8161 74.595 13.3608 75.0538 14.0658C75.5289 14.7548 75.7664 15.5639 75.7664 16.4932V25.1933H72.7191V22.9582L73.4072 22.9101C73.0631 23.4709 72.6536 23.9436 72.1784 24.3281C71.7033 24.6966 71.1626 24.985 70.5564 25.1933C69.9502 25.3856 69.2785 25.4817 68.5413 25.4817Z" fill="#061A40"/>
<path d="M78.3734 25.1933V12.1191H81.3962V14.6907L81.1504 14.2341C81.4617 13.449 81.9696 12.8561 82.6741 12.4556C83.395 12.039 84.2305 11.8307 85.1808 11.8307C86.1638 11.8307 87.0321 12.039 87.7858 12.4556C88.5558 12.8722 89.1538 13.457 89.5798 14.21C90.0058 14.9471 90.2188 15.8042 90.2188 16.7816V25.1933H86.9994V17.5266C86.9994 16.9498 86.8847 16.4532 86.6553 16.0366C86.4259 15.62 86.1065 15.2995 85.6969 15.0752C85.3037 14.8349 84.8367 14.7147 84.2961 14.7147C83.7718 14.7147 83.3049 14.8349 82.8953 15.0752C82.4857 15.2995 82.1662 15.62 81.9368 16.0366C81.7075 16.4532 81.5928 16.9498 81.5928 17.5266V25.1933H78.3734Z" fill="#061A40"/>
<path d="M97.6596 25.4817C96.2342 25.4817 94.989 25.1533 93.9241 24.4963C92.8756 23.8234 92.1547 22.9181 91.7615 21.7806L94.1699 20.651C94.5139 21.388 94.989 21.9648 95.5952 22.3814C96.2178 22.798 96.9059 23.0063 97.6596 23.0063C98.2494 23.0063 98.7163 22.8781 99.0604 22.6217C99.4044 22.3654 99.5765 22.0289 99.5765 21.6123C99.5765 21.356 99.5027 21.1477 99.3553 20.9875C99.2242 20.8112 99.0358 20.667 98.7901 20.5549C98.5607 20.4267 98.3067 20.3225 98.0282 20.2424L95.841 19.6416C94.7105 19.3211 93.8504 18.8325 93.2606 18.1755C92.6871 17.5186 92.4004 16.7416 92.4004 15.8443C92.4004 15.0432 92.6052 14.3462 93.0148 13.7534C93.4408 13.1445 94.0224 12.6719 94.7597 12.3354C95.5133 11.999 96.3735 11.8307 97.3401 11.8307C98.6016 11.8307 99.7157 12.1271 100.682 12.72C101.649 13.3128 102.337 14.1459 102.747 15.2194L100.289 16.349C100.06 15.7562 99.6748 15.2835 99.1341 14.931C98.5935 14.5785 97.9873 14.4023 97.3155 14.4023C96.7749 14.4023 96.3489 14.5225 96.0376 14.7628C95.7263 15.0031 95.5707 15.3156 95.5707 15.7001C95.5707 15.9404 95.6362 16.1487 95.7673 16.325C95.8983 16.5012 96.0786 16.6454 96.3079 16.7576C96.5537 16.8697 96.8322 16.9739 97.1435 17.07L99.2816 17.6949C100.379 18.0153 101.223 18.496 101.813 19.1369C102.419 19.7778 102.722 20.5629 102.722 21.4922C102.722 22.2773 102.509 22.9742 102.083 23.5831C101.657 24.1759 101.067 24.6405 100.314 24.977C99.5601 25.3135 98.6754 25.4817 97.6596 25.4817Z" fill="#061A40"/>
<path d="M111.266 25.4817C109.939 25.4817 108.743 25.1853 107.678 24.5925C106.63 23.9836 105.802 23.1665 105.196 22.1411C104.59 21.0996 104.287 19.93 104.287 18.6322C104.287 17.3344 104.59 16.1728 105.196 15.1473C105.802 14.1219 106.63 13.3128 107.678 12.72C108.743 12.1271 109.939 11.8307 111.266 11.8307C112.217 11.8307 113.101 11.999 113.921 12.3354C114.74 12.6559 115.444 13.1045 116.034 13.6813C116.64 14.2421 117.074 14.915 117.337 15.7001L114.51 16.9018C114.265 16.2449 113.847 15.7161 113.257 15.3156C112.684 14.915 112.02 14.7147 111.266 14.7147C110.562 14.7147 109.931 14.883 109.374 15.2194C108.833 15.5559 108.407 16.0205 108.096 16.6134C107.785 17.2062 107.629 17.8871 107.629 18.6562C107.629 19.4253 107.785 20.1062 108.096 20.6991C108.407 21.2919 108.833 21.7565 109.374 22.093C109.931 22.4295 110.562 22.5977 111.266 22.5977C112.036 22.5977 112.708 22.3974 113.282 21.9969C113.855 21.5963 114.265 21.0596 114.51 20.3866L117.337 21.6364C117.074 22.3734 116.648 23.0383 116.059 23.6311C115.469 24.2079 114.764 24.6646 113.945 25.001C113.126 25.3215 112.233 25.4817 111.266 25.4817Z" fill="#061A40"/>
<path d="M123.418 25.4817C122.484 25.4817 121.673 25.3295 120.985 25.0251C120.297 24.7207 119.764 24.2881 119.387 23.7273C119.01 23.1505 118.822 22.4855 118.822 21.7325C118.822 21.0115 118.986 20.3706 119.313 19.8098C119.641 19.233 120.149 18.7523 120.837 18.3678C121.525 17.9833 122.394 17.7109 123.442 17.5507L127.817 16.8537V19.2571L124.057 19.8819C123.418 19.9941 122.942 20.1944 122.631 20.4828C122.32 20.7712 122.164 21.1477 122.164 21.6123C122.164 22.061 122.336 22.4215 122.68 22.6938C123.041 22.9502 123.483 23.0784 124.007 23.0784C124.679 23.0784 125.269 22.9422 125.777 22.6698C126.301 22.3814 126.703 21.9889 126.981 21.4922C127.276 20.9955 127.423 20.4507 127.423 19.8579V16.4932C127.423 15.9324 127.194 15.4678 126.735 15.0993C126.293 14.7147 125.703 14.5225 124.966 14.5225C124.278 14.5225 123.663 14.7067 123.123 15.0752C122.598 15.4277 122.213 15.9004 121.968 16.4932L119.338 15.2435C119.6 14.5545 120.01 13.9617 120.567 13.465C121.14 12.9523 121.812 12.5517 122.582 12.2633C123.352 11.9749 124.188 11.8307 125.089 11.8307C126.186 11.8307 127.153 12.031 127.989 12.4316C128.824 12.8161 129.471 13.3608 129.93 14.0658C130.405 14.7548 130.643 15.5639 130.643 16.4932V25.1933H127.595V22.9582L128.284 22.9101C127.939 23.4709 127.53 23.9436 127.055 24.3281C126.58 24.6966 126.039 24.985 125.433 25.1933C124.827 25.3856 124.155 25.4817 123.418 25.4817Z" fill="#061A40"/>
<path d="M133.25 30V12.1191H136.273V14.7147L135.978 14.0658C136.436 13.3608 137.059 12.8161 137.845 12.4316C138.632 12.031 139.541 11.8307 140.573 11.8307C141.835 11.8307 142.973 12.1351 143.989 12.744C145.005 13.3528 145.808 14.17 146.398 15.1954C147.004 16.2208 147.307 17.3744 147.307 18.6562C147.307 19.922 147.012 21.0756 146.422 22.117C145.832 23.1585 145.03 23.9836 144.014 24.5925C142.998 25.1853 141.843 25.4817 140.549 25.4817C139.582 25.4817 138.689 25.2975 137.87 24.9289C137.067 24.5444 136.428 23.9996 135.953 23.2947L136.469 22.6698V30H133.25ZM140.18 22.5977C140.917 22.5977 141.573 22.4295 142.146 22.093C142.719 21.7565 143.162 21.2919 143.473 20.6991C143.801 20.1062 143.965 19.4253 143.965 18.6562C143.965 17.8871 143.801 17.2142 143.473 16.6374C143.162 16.0446 142.719 15.5799 142.146 15.2435C141.573 14.891 140.917 14.7147 140.18 14.7147C139.476 14.7147 138.837 14.883 138.263 15.2194C137.706 15.5559 137.264 16.0286 136.936 16.6374C136.625 17.2302 136.469 17.9032 136.469 18.6562C136.469 19.4253 136.625 20.1062 136.936 20.6991C137.264 21.2919 137.706 21.7565 138.263 22.093C138.837 22.4295 139.476 22.5977 140.18 22.5977Z" fill="#061A40"/>
<path d="M155.733 25.4817C154.357 25.4817 153.153 25.1773 152.121 24.5684C151.088 23.9596 150.286 23.1344 149.712 22.093C149.139 21.0515 148.852 19.8979 148.852 18.6322C148.852 17.3184 149.139 16.1567 149.712 15.1473C150.302 14.1219 151.097 13.3128 152.096 12.72C153.112 12.1271 154.242 11.8307 155.487 11.8307C156.536 11.8307 157.454 11.999 158.24 12.3354C159.043 12.6719 159.723 13.1365 160.28 13.7294C160.837 14.3222 161.263 15.0031 161.558 15.7722C161.853 16.5253 162 17.3424 162 18.2236C162 18.4479 161.984 18.6803 161.951 18.9206C161.934 19.1609 161.894 19.3692 161.828 19.5455H151.506V17.1421H160.009L158.486 18.2717C158.633 17.5347 158.592 16.8777 158.363 16.3009C158.15 15.7241 157.789 15.2675 157.282 14.931C156.79 14.5946 156.192 14.4263 155.487 14.4263C154.816 14.4263 154.218 14.5946 153.693 14.931C153.169 15.2515 152.768 15.7321 152.489 16.373C152.227 16.9979 152.129 17.759 152.194 18.6562C152.129 19.4573 152.235 20.1703 152.514 20.7952C152.809 21.404 153.235 21.8767 153.792 22.2132C154.365 22.5496 155.021 22.7179 155.758 22.7179C156.495 22.7179 157.118 22.5657 157.626 22.2612C158.15 21.9568 158.559 21.5482 158.854 21.0355L161.459 22.2853C161.197 22.9101 160.788 23.4629 160.231 23.9436C159.674 24.4242 159.01 24.8008 158.24 25.0731C157.486 25.3455 156.651 25.4817 155.733 25.4817Z" fill="#061A40"/>
</svg>
